<svg id="visual" viewBox="0 0 900 600" width="900" height="600" xmlns="http://www.w3.org/2000/svg" xmlns:xlink="http://www.w3.org/1999/xlink" version="1.1"><g transform="translate(906.7205041903048 -48.24531585461483)"><path d="M204.6 -379C268.5 -317.4 326.1 -269.5 363.9 -208.6C401.8 -147.7 419.9 -73.8 435.2 8.8C450.5 91.5 463 183 441.7 272.6C420.5 362.3 365.5 450 286.2 516.8C207 583.5 103.5 629.3 7.3 616.7C-89 604.2 -178 533.3 -247.7 461.1C-317.4 388.8 -367.9 315.2 -402.7 238.1C-437.5 161 -456.8 80.5 -463.8 -4.1C-470.9 -88.7 -465.8 -177.3 -425.2 -244.3C-384.5 -311.3 -308.2 -356.6 -231.5 -410.7C-154.7 -464.9 -77.3 -527.9 -3.5 -521.9C70.3 -515.8 140.6 -440.6 204.6 -379" fill="#EAF0FC"></path></g></svg>