<svg width="734" height="287" viewBox="0 0 734 287" fill="none" xmlns="http://www.w3.org/2000/svg">
<path fill-rule="evenodd" clip-rule="evenodd" d="M41.5188 -111.673C94.5319 -195.808 189.186 -240.705 288.002 -251.856C381.937 -262.457 487.466 -243.943 544.313 -168.414C595.155 -100.863 538.795 -11.9225 532.018 72.3515C525.331 155.511 567.489 252.491 505.937 308.807C439.668 369.439 337.722 351.916 250.676 329.764C156.026 305.678 55.483 271.794 13.6643 183.533C-30.8612 89.5598 -13.917 -23.6935 41.5188 -111.673Z" fill="#3071E7"/>
<path fill-rule="evenodd" clip-rule="evenodd" d="M19.5188 -161.673C72.5319 -245.808 167.186 -290.705 266.002 -301.856C359.937 -312.457 465.466 -293.943 522.313 -218.414C573.155 -150.863 516.795 -61.9225 510.018 22.3515C503.331 105.511 545.489 202.491 483.937 258.807C417.668 319.439 315.722 301.916 228.676 279.764C134.026 255.678 33.483 221.794 -8.33568 133.533C-52.8612 39.5598 -35.917 -73.6935 19.5188 -161.673Z" fill="#EAF0FC"/>
</svg>
