<svg width="700" height="700" viewBox="0 0 700 700" fill="none" xmlns="http://www.w3.org/2000/svg">
<path opacity="0.7" d="M95.102 233.926C95.102 233.926 56.07 334.726 110.922 436.226C165.774 537.726 278.754 591.346 369.18 637.196C459.606 683.046 553.504 660.716 598.122 585.62C642.74 510.524 581.546 456.918 581.462 349.832C581.378 242.746 597.492 214.396 539.462 123.928C481.432 33.46 339.178 13.426 231.602 80.528C124.026 147.63 95.102 233.926 95.102 233.926Z" fill="white"/>
<path d="M89.1659 194.824C126.56 122.248 196 67.34 282.45 59.612C341.908 54.4277 401.166 71.5718 448.672 107.702C472.276 125.902 493.248 149.072 507.178 175.518C523.166 205.898 527.828 240.926 544.278 271.166C564.732 308.756 603.148 324.268 628.95 356.748C650.188 383.502 657.482 419.356 655.046 453.432C650.594 515.634 614.152 574.686 560.546 606.564C515.228 633.514 460.6 640.948 407.946 638.498C326.746 634.732 245.91 607.95 181.958 557.788C118.006 507.626 72.0439 433.468 61.1519 352.926C53.7459 298.2 64.5119 242.662 89.1659 194.824Z" fill="#3071E7"/>
<path opacity="0.7" d="M89.1659 194.824C126.56 122.248 196 67.34 282.45 59.612C341.908 54.4277 401.166 71.5718 448.672 107.702C472.276 125.902 493.248 149.072 507.178 175.518C523.166 205.898 527.828 240.926 544.278 271.166C564.732 308.756 603.148 324.268 628.95 356.748C650.188 383.502 657.482 419.356 655.046 453.432C650.594 515.634 614.152 574.686 560.546 606.564C515.228 633.514 460.6 640.948 407.946 638.498C326.746 634.732 245.91 607.95 181.958 557.788C118.006 507.626 72.0439 433.468 61.1519 352.926C53.7459 298.2 64.5119 242.662 89.1659 194.824Z" fill="white"/>
<path d="M64.498 221.354C66.15 227.906 65.338 215.852 68.572 201.124C71.806 186.396 77.364 192.36 77.364 192.36" stroke="#263238" stroke-linecap="round" stroke-linejoin="round"/>
<path d="M63.49 206.304L73.64 202.146" stroke="#263238" stroke-linecap="round" stroke-linejoin="round"/>
<path d="M82.026 197.148C82.026 197.148 75.964 209.748 85.106 215.04" stroke="#263238" stroke-linecap="round" stroke-linejoin="round"/>
<path d="M90.636 193.62C90.636 193.62 100.66 199.22 94.388 211.232" stroke="#263238" stroke-linecap="round" stroke-linejoin="round"/>
<path d="M83.776 201.404L90.958 206.64" stroke="#263238" stroke-linecap="round" stroke-linejoin="round"/>
<path d="M89.404 199.094L83.79 208.04" stroke="#263238" stroke-linecap="round" stroke-linejoin="round"/>
<path d="M121.656 333.178C123.022 324.853 117.381 316.998 109.057 315.632C100.733 314.266 92.8773 319.906 91.5112 328.23C90.1451 336.555 95.7857 344.41 104.11 345.776C112.434 347.143 120.29 341.502 121.656 333.178Z" stroke="#263238" stroke-linecap="round" stroke-linejoin="round"/>
<path d="M130.716 353.273C139.881 351.393 145.787 342.44 143.907 333.275C142.028 324.11 133.074 318.204 123.909 320.084C114.744 321.963 108.838 330.917 110.718 340.082C112.598 349.246 121.551 355.152 130.716 353.273Z" stroke="#263238" stroke-linecap="round" stroke-linejoin="round"/>
<path d="M120.498 324.394L113.47 326.9" stroke="#263238" stroke-linecap="round" stroke-linejoin="round"/>
<path d="M121.478 327.292L111.37 330.946" stroke="#263238" stroke-linecap="round" stroke-linejoin="round"/>
<path d="M121.856 330.792L110.572 335.132" stroke="#263238" stroke-linecap="round" stroke-linejoin="round"/>
<path d="M121.058 335.566L110.768 340.27" stroke="#263238" stroke-linecap="round" stroke-linejoin="round"/>
<path d="M119.238 339.234L111.426 342.482" stroke="#263238" stroke-linecap="round" stroke-linejoin="round"/>
<path d="M113.96 307.426C113.526 306.026 108.57 305.158 108.36 308.826C108.15 312.494 113.582 309.442 115.122 307.426C115.122 307.426 112.322 311.192 113.498 311.934" stroke="#263238" stroke-linecap="round" stroke-linejoin="round"/>
<path d="M141.4 311.99L137.004 321.132C137.004 321.132 139.202 316.554 141.554 316.932C144.452 317.45 142.52 322.196 139.02 320.446" stroke="#263238" stroke-linecap="round" stroke-linejoin="round"/>
<path d="M619.794 461.258L626.696 467.782" stroke="#263238" stroke-linecap="round" stroke-linejoin="round"/>
<path d="M626.696 459.55L620.914 468.188" stroke="#263238" stroke-linecap="round" stroke-linejoin="round"/>
<path d="M633.486 462.028L640.402 459.452" stroke="#263238" stroke-linecap="round" stroke-linejoin="round"/>
<path d="M643.72 452.256L647.92 455.966" stroke="#263238" stroke-linecap="round" stroke-linejoin="round"/>
<path d="M651.14 447.79L645.82 466.046" stroke="#263238" stroke-linecap="round" stroke-linejoin="round"/>
<path d="M328.958 358.708L347.536 345.926L372.134 347.648L373.674 378.84L355.614 391.748L333.326 390.124L328.958 358.708Z" stroke="#263238" stroke-linecap="round" stroke-linejoin="round"/>
<path d="M333.326 390.124L351.316 377.174L373.674 378.84" stroke="#263238" stroke-linecap="round" stroke-linejoin="round"/>
<path d="M351.316 377.174L347.536 345.926" stroke="#263238" stroke-linecap="round" stroke-linejoin="round"/>
<path d="M328.958 358.708L353.5 361.55L372.134 347.648" stroke="#263238" stroke-linecap="round" stroke-linejoin="round"/>
<path d="M353.5 361.55L355.614 391.748" stroke="#263238" stroke-linecap="round" stroke-linejoin="round"/>
<path d="M545.79 253.918L537.558 279.496L563.178 276.038L545.79 253.918Z" stroke="#263238" stroke-linecap="round" stroke-linejoin="round"/>
<path d="M545.79 253.918L550.368 277.62" stroke="#263238" stroke-linecap="round" stroke-linejoin="round"/>
<path d="M549.64 273.826L552.636 273.35L553.336 277.368" stroke="#263238" stroke-linecap="round" stroke-linejoin="round"/>
<path d="M223.146 487.984L235.942 494.27" stroke="#263238" stroke-linecap="round" stroke-linejoin="round"/>
<path d="M231.812 483.182L228.144 496.552" stroke="#263238" stroke-linecap="round" stroke-linejoin="round"/>
<path d="M233.59 476.658C233.8 476.441 234.058 476.276 234.343 476.176C234.628 476.076 234.933 476.045 235.232 476.085C235.532 476.124 235.818 476.233 236.068 476.403C236.317 476.573 236.524 476.8 236.67 477.064C237.958 479.08 235.438 483.308 235.438 483.308L240.576 481.348" stroke="#263238" stroke-linecap="round" stroke-linejoin="round"/>
<path d="M323.61 47.6C335.832 54.474 321.832 71.274 321.832 81.074C321.832 90.874 335.832 89.474 342.832 92.274C345.632 92.274 351.232 92.274 351.078 99.386" stroke="#263238" stroke-linecap="round" stroke-linejoin="round"/>
<path d="M309.988 56.518C312.116 68.096 325.388 63.994 333.536 66.64C347.536 71.19 339.766 85.638 335.594 94.374C333.088 99.582 330.596 106.89 335.076 111.832" stroke="#263238" stroke-linecap="round" stroke-linejoin="round"/>
<path d="M311.78 61.012L326.354 48.902" stroke="#263238" stroke-linecap="round" stroke-linejoin="round"/>
<path d="M317.492 64.624L328.468 55.524" stroke="#263238" stroke-linecap="round" stroke-linejoin="round"/>
<path d="M323.946 73.836L333.214 66.556" stroke="#263238" stroke-linecap="round" stroke-linejoin="round"/>
<path d="M322.028 84.728L340.144 71.708" stroke="#263238" stroke-linecap="round" stroke-linejoin="round"/>
<path d="M328.972 89.81L341.6 80.542" stroke="#263238" stroke-linecap="round" stroke-linejoin="round"/>
<path d="M334.348 109.508L350.126 96.656" stroke="#263238" stroke-linecap="round" stroke-linejoin="round"/>
<path d="M334.74 99.4L345.03 92.162" stroke="#263238" stroke-linecap="round" stroke-linejoin="round"/>
<path d="M128.732 494.958C143.764 488.946 151.077 471.885 145.064 456.852C139.051 441.819 121.99 434.507 106.958 440.519C91.9246 446.532 84.6123 463.593 90.6251 478.626C96.6378 493.659 113.699 500.971 128.732 494.958Z" stroke="#263238" stroke-linecap="round" stroke-linejoin="round"/>
<path d="M125.216 439.376C135.436 427.378 144.13 420.588 147.476 422.8C152.572 426.146 143.43 448.994 127.064 473.816C110.698 498.638 93.2959 516.054 88.1999 512.694C84.8399 510.496 87.6679 499.828 94.6679 485.702" stroke="#263238" stroke-linecap="round" stroke-linejoin="round"/>
<path d="M89.1519 473.76C74.8999 469.658 65.7999 464.87 66.3739 461.048C67.1999 455 91.8259 453.6 121.24 458.01C150.654 462.42 173.782 470.778 172.9 476.798C172.27 480.998 160.3 482.916 143.29 482.272" stroke="#263238" stroke-linecap="round" stroke-linejoin="round"/>
<path d="M92.8899 452.522C82.1379 433.118 76.7619 417.984 80.4019 415.618C85.1899 412.524 103.698 432.6 121.744 460.418C139.79 488.236 150.528 513.38 145.754 516.488C142.59 518.532 133.42 510.44 122.346 496.664" stroke="#263238" stroke-linecap="round" stroke-linejoin="round"/>
<path d="M151.606 435.484C151.084 436.28 150.338 436.903 149.462 437.275C148.586 437.647 147.619 437.751 146.684 437.575C145.749 437.398 144.887 436.948 144.207 436.281C143.528 435.615 143.061 434.762 142.866 433.831C142.67 432.899 142.755 431.931 143.11 431.047C143.465 430.164 144.073 429.406 144.859 428.868C145.644 428.331 146.571 428.038 147.523 428.027C148.475 428.016 149.408 428.287 150.206 428.806C150.737 429.152 151.195 429.599 151.553 430.122C151.911 430.645 152.163 431.234 152.293 431.854C152.423 432.475 152.429 433.115 152.311 433.738C152.193 434.36 151.954 434.954 151.606 435.484V435.484Z" fill="#263238"/>
<path d="M135.66 509.25C135.138 510.046 134.392 510.669 133.516 511.041C132.64 511.413 131.673 511.517 130.738 511.341C129.803 511.164 128.941 510.714 128.261 510.047C127.582 509.381 127.115 508.528 126.919 507.597C126.724 506.665 126.809 505.697 127.164 504.813C127.519 503.93 128.127 503.172 128.913 502.634C129.698 502.097 130.625 501.804 131.577 501.793C132.529 501.782 133.462 502.053 134.26 502.572C134.791 502.918 135.249 503.365 135.607 503.888C135.965 504.411 136.216 505 136.347 505.62C136.477 506.241 136.483 506.881 136.365 507.504C136.247 508.126 136.008 508.72 135.66 509.25V509.25Z" fill="#263238"/>
<path d="M109.928 459.2C109.406 459.996 108.66 460.619 107.784 460.991C106.908 461.363 105.941 461.467 105.006 461.291C104.071 461.114 103.209 460.664 102.529 459.997C101.85 459.331 101.383 458.478 101.188 457.547C100.992 456.615 101.077 455.647 101.432 454.763C101.787 453.88 102.395 453.122 103.181 452.584C103.966 452.047 104.893 451.754 105.845 451.743C106.797 451.732 107.73 452.003 108.528 452.522C109.598 453.223 110.346 454.32 110.609 455.572C110.871 456.823 110.627 458.128 109.928 459.2V459.2Z" fill="#263238"/>
<path d="M416.962 249.648H433.454L441.7 235.368L433.454 221.088H416.962L408.716 235.368L416.962 249.648Z" stroke="#263238" stroke-linecap="round" stroke-linejoin="round"/>
<path d="M414.568 280.994L406.322 266.714H389.83" stroke="#263238" stroke-linecap="round" stroke-linejoin="round"/>
<path d="M392.042 235.368H408.534L416.78 221.088L408.534 206.794H392.042L383.796 221.088L392.042 235.368Z" stroke="#263238" stroke-linecap="round" stroke-linejoin="round"/>
<path d="M416.962 221.088H433.454L441.7 206.794L433.454 192.514H416.962L408.716 206.794L416.962 221.088Z" stroke="#263238" stroke-linecap="round" stroke-linejoin="round"/>
<path d="M416.78 223.3C418.002 223.3 418.992 222.31 418.992 221.088C418.992 219.866 418.002 218.876 416.78 218.876C415.558 218.876 414.568 219.866 414.568 221.088C414.568 222.31 415.558 223.3 416.78 223.3Z" fill="#263238"/>
<path d="M382.34 193.312C383.562 193.312 384.552 192.322 384.552 191.1C384.552 189.878 383.562 188.888 382.34 188.888C381.118 188.888 380.128 189.878 380.128 191.1C380.128 192.322 381.118 193.312 382.34 193.312Z" fill="#263238"/>
<path d="M412.356 280.994C412.356 280.557 412.486 280.129 412.729 279.765C412.972 279.401 413.317 279.118 413.721 278.95C414.126 278.783 414.57 278.739 414.999 278.824C415.429 278.91 415.823 279.121 416.132 279.43C416.441 279.739 416.652 280.133 416.737 280.562C416.823 280.992 416.779 281.436 416.612 281.84C416.444 282.245 416.161 282.59 415.797 282.833C415.433 283.076 415.005 283.206 414.568 283.206C414.277 283.206 413.99 283.149 413.721 283.038C413.453 282.926 413.209 282.764 413.004 282.558C412.798 282.353 412.635 282.109 412.524 281.84C412.413 281.572 412.356 281.284 412.356 280.994V280.994Z" fill="#263238"/>
<path d="M389.83 268.926C391.052 268.926 392.042 267.936 392.042 266.714C392.042 265.492 391.052 264.502 389.83 264.502C388.608 264.502 387.618 265.492 387.618 266.714C387.618 267.936 388.608 268.926 389.83 268.926Z" fill="#263238"/>
<path d="M457.66 207.2C457.66 206.759 457.791 206.328 458.036 205.962C458.281 205.596 458.63 205.31 459.037 205.142C459.445 204.974 459.893 204.931 460.325 205.018C460.758 205.105 461.154 205.318 461.465 205.631C461.776 205.944 461.987 206.342 462.071 206.774C462.155 207.207 462.109 207.655 461.938 208.062C461.768 208.468 461.48 208.815 461.112 209.058C460.745 209.301 460.313 209.429 459.872 209.426C459.58 209.426 459.292 209.368 459.022 209.256C458.753 209.144 458.508 208.98 458.303 208.773C458.097 208.566 457.935 208.321 457.824 208.051C457.714 207.781 457.658 207.492 457.66 207.2V207.2Z" fill="#263238"/>
<path d="M406.154 268.926C407.376 268.926 408.366 267.936 408.366 266.714C408.366 265.492 407.376 264.502 406.154 264.502C404.932 264.502 403.942 265.492 403.942 266.714C403.942 267.936 404.932 268.926 406.154 268.926Z" fill="#263238"/>
<path d="M439.488 207.2C439.488 206.76 439.619 206.329 439.863 205.963C440.108 205.597 440.455 205.312 440.862 205.143C441.269 204.975 441.716 204.931 442.148 205.017C442.58 205.103 442.977 205.315 443.288 205.626C443.599 205.937 443.811 206.334 443.897 206.766C443.983 207.198 443.939 207.645 443.771 208.052C443.602 208.459 443.317 208.806 442.951 209.051C442.585 209.295 442.154 209.426 441.714 209.426C441.124 209.426 440.557 209.191 440.14 208.774C439.723 208.357 439.488 207.79 439.488 207.2V207.2Z" fill="#263238"/>
<path d="M414.568 249.662C414.565 249.221 414.694 248.788 414.937 248.42C415.181 248.052 415.528 247.764 415.936 247.594C416.343 247.424 416.792 247.379 417.225 247.464C417.658 247.55 418.056 247.762 418.368 248.074C418.68 248.386 418.892 248.784 418.978 249.217C419.063 249.65 419.018 250.099 418.848 250.506C418.678 250.914 418.39 251.261 418.022 251.505C417.654 251.748 417.221 251.877 416.78 251.874C416.194 251.87 415.634 251.636 415.22 251.222C414.806 250.808 414.572 250.248 414.568 249.662Z" fill="#263238"/>
<path d="M441.714 207.172H459.872" stroke="#263238" stroke-linecap="round" stroke-linejoin="round"/>
<path d="M416.78 249.662L406.154 266.714" stroke="#263238" stroke-linecap="round" stroke-linejoin="round"/>
<path d="M392.042 206.794L382.34 191.1" stroke="#263238" stroke-linecap="round" stroke-linejoin="round"/>
<path d="M509.012 150.5C510.914 144.07 514.879 138.445 520.295 134.492C525.71 130.539 532.276 128.478 538.98 128.626C545.683 128.774 552.151 131.123 557.387 135.312C562.623 139.5 566.336 145.295 567.952 151.802" stroke="#263238" stroke-linecap="round" stroke-linejoin="round"/>
<path d="M534.8 189.476C527.351 188.623 520.477 185.06 515.486 179.466C510.495 173.871 507.738 166.635 507.738 159.138" stroke="#263238" stroke-linecap="round" stroke-linejoin="round"/>
<path d="M568.834 159.138C568.834 167.234 565.619 174.998 559.896 180.724C554.172 186.45 546.41 189.668 538.314 189.672" stroke="#263238" stroke-linecap="round" stroke-linejoin="round"/>
<path d="M570.57 139.776C580.118 138.558 586.516 139.216 587.51 142.072C589.484 147.756 569.058 160.006 541.884 169.442C514.71 178.878 491.092 181.902 489.104 176.204C488.054 173.166 493.402 168.252 502.754 162.89" stroke="#263238" stroke-linecap="round" stroke-linejoin="round"/>
<path d="M406.154 118.86L409.08 124.782L415.618 125.734L410.886 130.354L412.006 136.864L406.154 133.784L400.302 136.864L401.422 130.354L396.69 125.734L403.228 124.782L406.154 118.86Z" stroke="#263238" stroke-linecap="round" stroke-linejoin="round"/>
<path d="M199.458 103.082C199.454 108.347 197.362 113.396 193.64 117.12C189.918 120.845 184.871 122.941 179.606 122.948C178.962 122.948 178.332 122.92 177.716 122.864C173.884 122.501 170.241 121.032 167.228 118.636C164.215 116.241 161.963 113.022 160.746 109.37C159.528 105.719 159.398 101.793 160.37 98.0686C161.342 94.3445 163.376 90.983 166.223 88.3927C169.069 85.8024 172.607 84.0949 176.407 83.4778C180.206 82.8607 184.102 83.3604 187.623 84.9164C191.143 86.4723 194.136 89.0175 196.237 92.2424C198.338 95.4673 199.457 99.233 199.458 103.082V103.082Z" stroke="#263238" stroke-linecap="round" stroke-linejoin="round"/>
<path d="M196.28 106.666C196.283 107.276 196.104 107.873 195.768 108.381C195.431 108.889 194.951 109.286 194.388 109.522C193.826 109.757 193.206 109.82 192.608 109.703C192.009 109.585 191.459 109.293 191.027 108.863C190.595 108.433 190.3 107.884 190.18 107.286C190.06 106.688 190.12 106.068 190.353 105.505C190.586 104.941 190.981 104.459 191.487 104.12C191.994 103.781 192.59 103.6 193.2 103.6C194.014 103.6 194.796 103.923 195.373 104.497C195.95 105.072 196.276 105.852 196.28 106.666V106.666Z" stroke="#263238" stroke-linecap="round" stroke-linejoin="round"/>
<path d="M168.63 114.478C168.631 115.208 168.471 115.929 168.161 116.589C167.851 117.25 167.4 117.834 166.838 118.3C164.227 116.145 162.217 113.353 161 110.194C161.77 109.721 162.658 109.474 163.562 109.48C164.224 109.471 164.882 109.593 165.496 109.84C166.111 110.087 166.67 110.454 167.141 110.919C167.613 111.384 167.987 111.938 168.243 112.549C168.499 113.16 168.63 113.816 168.63 114.478Z" stroke="#263238" stroke-linecap="round" stroke-linejoin="round"/>
<path d="M193.2 117.6C189.529 121.077 184.662 123.012 179.606 123.004C178.962 123.004 178.332 122.976 177.716 122.92C177.603 122.381 177.547 121.832 177.548 121.282C177.549 119.421 178.178 117.615 179.334 116.156C180.49 114.697 182.105 113.672 183.917 113.245C185.728 112.819 187.631 113.017 189.316 113.808C191.001 114.598 192.369 115.934 193.2 117.6V117.6Z" stroke="#263238" stroke-linecap="round" stroke-linejoin="round"/>
<path d="M174.79 95.2C177.311 95.2 179.354 93.1566 179.354 90.636C179.354 88.1154 177.311 86.072 174.79 86.072C172.269 86.072 170.226 88.1154 170.226 90.636C170.226 93.1566 172.269 95.2 174.79 95.2Z" stroke="#263238" stroke-linecap="round" stroke-linejoin="round"/>
<path d="M179.018 103.6C179.018 104.018 178.894 104.427 178.662 104.774C178.429 105.122 178.099 105.393 177.713 105.553C177.327 105.713 176.902 105.755 176.492 105.673C176.082 105.592 175.705 105.39 175.409 105.095C175.114 104.799 174.912 104.423 174.831 104.012C174.749 103.602 174.791 103.177 174.951 102.791C175.111 102.405 175.382 102.075 175.73 101.842C176.077 101.61 176.486 101.486 176.904 101.486C177.182 101.486 177.457 101.541 177.713 101.647C177.97 101.753 178.203 101.909 178.399 102.105C178.595 102.301 178.751 102.535 178.857 102.791C178.963 103.048 179.018 103.322 179.018 103.6Z" stroke="#263238" stroke-linecap="round" stroke-linejoin="round"/>
<path d="M195.72 91.49C195.164 91.6722 194.583 91.7621 193.998 91.756C193.234 91.756 192.477 91.6053 191.771 91.3124C191.066 91.0196 190.424 90.5903 189.885 90.0494C189.345 89.5084 188.917 88.8662 188.626 88.1597C188.335 87.4532 188.186 86.6962 188.188 85.932C188.174 85.6896 188.174 85.4465 188.188 85.204C191.187 86.6337 193.777 88.7955 195.72 91.49V91.49Z" stroke="#263238" stroke-linecap="round" stroke-linejoin="round"/>
<path d="M652.19 333.606L654.332 328.79L650.86 326.886C650.988 326.038 651.011 325.178 650.93 324.324L654.486 322.588L652.596 317.674L648.788 318.766C648.278 318.08 647.685 317.46 647.024 316.918L648.326 313.166L643.51 311.024L641.592 314.496C640.741 314.391 639.881 314.391 639.03 314.496L637.308 310.94L632.38 312.83L633.486 316.624C632.799 317.143 632.174 317.74 631.624 318.402L627.886 317.1L625.8 321.846L629.272 323.764C629.144 324.612 629.12 325.472 629.202 326.326L625.632 328.048L627.522 332.976L631.33 331.87C631.844 332.557 632.436 333.182 633.094 333.732L631.806 337.47L636.622 339.612L638.526 336.14C639.374 336.268 640.234 336.291 641.088 336.21L642.824 339.78L647.738 337.89L646.646 334.082C647.328 333.568 647.949 332.976 648.494 332.318L652.19 333.606ZM637.546 330.918C636.441 330.426 635.506 329.618 634.86 328.595C634.213 327.572 633.885 326.381 633.916 325.171C633.947 323.962 634.336 322.789 635.033 321.8C635.731 320.812 636.706 320.052 637.835 319.618C638.964 319.184 640.197 319.094 641.377 319.36C642.557 319.626 643.632 320.236 644.466 321.112C645.3 321.989 645.854 323.093 646.061 324.286C646.267 325.478 646.115 326.704 645.624 327.81C644.962 329.291 643.741 330.45 642.227 331.032C640.713 331.615 639.03 331.574 637.546 330.918V330.918Z" stroke="#263238" stroke-linecap="round" stroke-linejoin="round"/>
<path d="M626.598 358.316L629.51 351.778L624.806 349.174C624.974 348.024 625.002 346.858 624.89 345.702L629.734 343.35L627.2 336.672L622.034 338.17C621.344 337.234 620.54 336.387 619.64 335.65L621.404 330.554L614.81 327.6L612.22 332.304C611.07 332.139 609.905 332.106 608.748 332.206L606.396 327.376L599.704 329.952L601.202 335.104C600.272 335.807 599.427 336.615 598.682 337.512L593.6 335.804L590.688 342.342L595.392 344.946C595.224 346.096 595.196 347.262 595.308 348.418L590.464 350.77L593.04 357.448L598.206 355.964C598.9 356.897 599.704 357.743 600.6 358.484L598.836 363.566L605.388 366.478L607.978 361.76C609.127 361.932 610.293 361.965 611.45 361.858L613.802 366.688L620.494 364.126L618.996 358.96C619.926 358.262 620.771 357.458 621.516 356.566L626.598 358.316ZM606.718 354.662C605.215 353.992 603.945 352.892 603.068 351.5C602.19 350.108 601.746 348.487 601.79 346.843C601.834 345.198 602.365 343.603 603.316 342.261C604.267 340.918 605.594 339.887 607.131 339.299C608.668 338.711 610.344 338.592 611.948 338.957C613.553 339.323 615.013 340.155 616.143 341.35C617.274 342.545 618.025 344.049 618.301 345.671C618.577 347.293 618.366 348.96 617.694 350.462C617.25 351.459 616.614 352.359 615.821 353.11C615.029 353.861 614.097 354.448 613.077 354.838C612.058 355.228 610.971 355.414 609.88 355.383C608.789 355.353 607.714 355.108 606.718 354.662Z" stroke="#263238" stroke-linecap="round" stroke-linejoin="round"/>
<path d="M336.378 296.254C334.459 299.889 332.294 303.388 329.896 306.726C317.458 324.02 299.18 336.228 278.441 341.094C257.702 345.96 235.903 343.156 217.07 333.2C215.124 332.178 213.22 331.086 211.4 329.938C209.58 328.79 207.802 327.614 206.094 326.354C204.022 324.856 202.034 323.26 200.13 321.594C200.008 321.503 199.896 321.4 199.794 321.286V321.286C187.388 310.307 178.32 296.059 173.626 280.171C168.933 264.283 168.804 247.394 173.253 231.436C177.702 215.478 186.55 201.093 198.786 189.924C211.023 178.756 226.154 171.255 242.452 168.278C258.749 165.301 275.555 166.968 290.95 173.089C306.344 179.21 319.707 189.538 329.51 202.893C339.314 216.248 345.163 232.091 346.39 248.613C347.617 265.134 344.172 281.668 336.448 296.324L336.378 296.254Z" fill="#3071E7"/>
<g opacity="0.6">
<path d="M336.378 296.254C334.459 299.889 332.294 303.388 329.896 306.726L328.188 305.326L325.248 303.772L322.154 302.148L322.672 298.41L322.504 295.036C322.322 291.662 324.758 294.42 326.704 293.398C328.222 292.313 329.448 290.871 330.274 289.198C330.274 289.198 331.674 284.704 331.212 282.898C330.458 280.817 329.57 278.787 328.552 276.822L323.54 283.822L319.34 283.5L315.364 281.4L314.846 275.87L312.802 274.806L311.948 271.628L300.902 268.534L299.642 266.322C298.382 264.11 293.3 262.976 293.3 262.976L294.546 260.092L296.506 256.872C298.48 253.652 300.524 259 300.524 259L302.862 260.218L307.202 256.578L308.35 251.356L315.42 251.762C315.282 251.055 315.389 250.322 315.726 249.686C316.062 249.049 316.606 248.546 317.268 248.262C319.62 247.338 318.584 242.228 317.688 240.338C316.792 238.448 313.488 239.974 313.488 239.974C313.488 239.974 309.89 234.5 309.4 232.316C308.91 230.132 316.26 230.916 319.41 228.718C322.56 226.52 321.482 222.152 319.942 222.054C318.402 221.956 322.952 212.114 331.702 214.816C334.138 215.572 335.678 215.306 336.63 214.466C343.195 227.106 346.601 241.148 346.557 255.391C346.513 269.634 343.021 283.655 336.378 296.254V296.254Z" fill="white"/>
<path d="M275.156 258.384L272.16 262.15C272.16 262.15 270.886 259.112 269.066 260.75L266.266 263.242L264.236 268.926L260.596 271.278L258.37 270.116L256.27 268.996L253.988 267.792L251.804 271.992L250.026 275.352C250.892 277.001 251.97 278.531 253.232 279.902L257.096 286.72L261.8 289.1C263.762 289.173 265.714 289.407 267.638 289.8L270.872 291.494L269.724 298.494C269.724 298.494 267.288 302.456 265.664 301.364L264.026 300.286L261.366 309.498L261.254 314.566C261.254 314.566 259.672 315.224 258.076 315.756C256.48 316.288 257.488 316.008 254.142 317.044C250.796 318.08 251.062 318.038 248.346 318.808C246.031 319.618 243.803 320.66 241.696 321.916L241.934 326.788L235.536 327.726L231.952 325.822L232.834 322.742L233.254 317.926L232.764 314.328L231.224 311.15L235.536 307.244L234.584 304.794L232.134 299.922L226.954 302.722L224.294 304.122L218.274 301.42L217.616 297.766L215.6 291.2L213.724 287.112L210.392 282.604L209.552 278.726L211.428 275.17L212.422 273.294L209.356 269.164L208.516 266.224L203.35 261.534C203.35 261.534 204.848 261.436 204.512 259.35C204.176 257.264 207.466 253.75 207.466 253.75C209.328 254.73 214.914 258.622 214.914 258.622L219.8 259.294C219.8 259.294 220.78 259.294 221.732 257.446C222.844 255.746 224.15 254.182 225.624 252.784C225.624 252.784 223.37 244.958 224.98 243.908C226.59 242.858 228.228 237.734 228.228 237.734L229.516 235.284C229.516 235.284 226.478 233.954 225.904 232.344C225.33 230.734 217.84 232.876 217.84 232.876L212.674 236.46L208.6 239.61L206.836 242.956C206.836 242.956 203.238 238.63 203.224 241.052C202.949 243.535 202.405 245.981 201.6 248.346C201.6 248.346 202.342 248.738 201.362 250.614C200.382 252.49 199.318 252.392 197.162 252.658C194.351 252.686 191.543 252.494 188.762 252.084C188.762 252.084 187.362 257.264 188.328 258.16L189.28 259.028C189.28 259.028 187.782 262.794 186.298 262.01L182.686 260.106L177.632 262.15L172.032 268.338L170.786 268.086C167.354 245.066 173.148 221.621 186.909 202.85C200.67 184.079 221.286 171.499 244.272 167.846C244.594 169.246 244.944 170.562 244.944 170.562L243.544 177.478L241.752 180.894L240.212 183.82L238.042 187.936L243.6 193.06L242.41 199.122L239.4 201.012L238.532 205.562L243.698 215.656L245.098 219.618C244.234 221.515 243.808 223.582 243.852 225.666C243.852 225.666 244.482 229.446 247.24 230.944C249.998 232.442 253.624 234.206 253.624 234.206L253.33 239.806L252.084 241.206L254.156 247.24C260.47 249.718 259.868 251.79 260.47 249.718L261.086 247.66L265.384 246.106L270.858 252.644C271.495 252.635 272.124 252.787 272.687 253.086C273.249 253.384 273.728 253.82 274.078 254.352C275.674 256.368 278.166 254.618 275.156 258.384Z" fill="white"/>
<path d="M200.956 307.146C201.11 309.134 198.59 311.626 198.59 311.626L200.648 312.704L201.278 318.304L199.724 321.272C188.712 311.544 180.313 299.213 175.294 285.404L176.414 279.468L181.356 278.768C181.356 278.768 185.78 275.828 187.74 276.612C189.7 277.396 191.492 282.212 191.492 282.212C191.492 282.212 192.892 288.708 192.71 288.582H192.626H192.738L194.754 289.646L195.328 292.208L192.528 297.528H188.02C188.02 297.528 187.124 297.052 187.04 299.39C187.113 300.201 187.359 300.987 187.763 301.695C188.166 302.403 188.717 303.016 189.378 303.492L194.25 302.246L195.552 297.206L200.34 296.268C200.34 296.268 199.654 299.362 200.774 299.95L201.908 300.552L202.58 304.248C202.078 304.546 201.664 304.97 201.379 305.479C201.094 305.988 200.948 306.563 200.956 307.146Z" fill="white"/>
<path d="M224.112 315.07C223.678 313.866 223.496 312.816 220.514 311.248C217.532 309.68 217.714 310.24 216.538 311.542C216.032 312.212 215.34 312.718 214.549 313C213.758 313.281 212.901 313.324 212.086 313.124C210.126 312.69 211.148 314.902 211.148 314.902L211.624 320.88L206.094 326.34C207.802 327.6 209.571 328.795 211.4 329.924L212.576 326.312L221.76 329C219.814 328.426 220.962 325.766 220.962 325.766L219.002 324.73C219.002 324.73 224.546 316.246 224.112 315.07Z" fill="white"/>
<path d="M281.96 283.99L278.95 280.952L275.506 282.03L274.106 284.83L273.056 286.846L274.456 289.646L277.256 293.048L278.852 289.996C278.852 289.996 283.29 289.996 285.614 287.434C287.938 284.872 281.96 283.99 281.96 283.99Z" fill="white"/>
<path d="M273.112 270.284L278.712 273.224L278.936 271.908C279.228 270.854 279.743 269.875 280.448 269.038L276.164 264.502L273.112 270.284Z" fill="white"/>
<path d="M271.208 335.454L269.598 333.088L267.722 332.108H261.996L258.734 338.296C258.734 338.296 255.612 337.876 251.51 337.512C247.408 337.148 248.416 338.842 248.416 338.842L247.352 342.734C257.701 344.008 268.195 343.444 278.348 341.068C277.168 340.245 275.943 339.488 274.68 338.8L271.208 335.454Z" fill="white"/>
</g>
<path d="M336.378 296.254C334.459 299.889 332.294 303.388 329.896 306.726C317.458 324.02 299.18 336.228 278.441 341.094C257.702 345.96 235.903 343.156 217.07 333.2C215.124 332.178 213.22 331.086 211.4 329.938C209.58 328.79 207.802 327.614 206.094 326.354C204.022 324.856 202.034 323.26 200.13 321.594C200.008 321.503 199.896 321.4 199.794 321.286V321.286C187.388 310.307 178.32 296.059 173.626 280.171C168.933 264.283 168.804 247.394 173.253 231.436C177.702 215.478 186.55 201.093 198.786 189.924C211.023 178.756 226.154 171.255 242.452 168.278C258.749 165.301 275.555 166.968 290.95 173.089C306.344 179.21 319.707 189.538 329.51 202.893C339.314 216.248 345.163 232.091 346.39 248.613C347.617 265.134 344.172 281.668 336.448 296.324L336.378 296.254Z" stroke="#263238" stroke-linecap="round" stroke-linejoin="round"/>
<path d="M278.348 341.068C268.195 343.444 257.701 344.008 247.352 342.734L248.416 338.842C248.416 338.842 247.408 337.148 251.51 337.512C255.612 337.876 258.734 338.296 258.734 338.296L261.996 332.108H267.722L269.598 333.088L271.208 335.454L274.68 338.8C275.943 339.488 277.168 340.245 278.348 341.068Z" stroke="#263238" stroke-linecap="round" stroke-linejoin="round"/>
<path d="M336.686 214.48C335.734 215.32 334.194 215.586 331.758 214.83C323.008 212.128 318.472 221.956 319.998 222.068C321.524 222.18 322.602 226.604 319.466 228.732C316.33 230.86 308.966 230.132 309.456 232.33C309.946 234.528 313.544 239.988 313.544 239.988C313.544 239.988 316.764 238.476 317.674 240.352C318.584 242.228 319.62 247.352 317.268 248.276C316.606 248.56 316.062 249.063 315.726 249.7C315.389 250.336 315.282 251.069 315.42 251.776L308.35 251.37L307.202 256.592L302.862 260.232L300.524 259.014C300.524 259.014 298.48 253.666 296.506 256.886L294.546 260.106L293.3 262.99C293.3 262.99 298.382 264.124 299.642 266.336L300.902 268.548L311.948 271.642L312.802 274.82L314.846 275.884L315.364 281.414L319.48 283.57L323.68 283.892L328.692 276.892C329.71 278.857 330.598 280.887 331.352 282.968C331.842 284.774 330.414 289.268 330.414 289.268C329.588 290.941 328.362 292.383 326.844 293.468C324.842 294.49 322.392 291.732 322.644 295.106L322.812 298.48L322.294 302.218L325.388 303.842L328.328 305.396L330.036 306.796" stroke="#263238" stroke-linecap="round" stroke-linejoin="round"/>
<path d="M170.898 268.086L172.144 268.338L177.744 262.15L182.798 260.106L186.41 262.01C187.894 262.794 189.392 259.028 189.392 259.028L188.44 258.16C187.474 257.264 188.874 252.084 188.874 252.084C191.655 252.494 194.463 252.686 197.274 252.658C199.486 252.392 200.536 252.476 201.474 250.614C202.412 248.752 201.712 248.346 201.712 248.346C202.517 245.981 203.061 243.535 203.336 241.052C203.336 238.63 206.948 242.956 206.948 242.956L208.712 239.61L212.66 236.474L217.826 232.89C217.826 232.89 225.316 230.734 225.89 232.358C226.464 233.982 229.502 235.298 229.502 235.298L228.214 237.748C228.214 237.748 226.562 242.844 224.966 243.922C223.37 245 225.61 252.798 225.61 252.798C224.136 254.196 222.83 255.76 221.718 257.46C220.738 259.336 219.786 259.308 219.786 259.308L214.9 258.636C214.9 258.636 209.3 254.744 207.452 253.764C207.452 253.764 204.162 257.278 204.498 259.364C204.834 261.45 203.336 261.548 203.336 261.548L208.502 266.238L209.342 269.178L212.408 273.308L211.414 275.184L209.538 278.74L210.378 282.618L213.71 287.126L215.6 291.2L217.644 297.794L218.302 301.448L224.322 304.15L226.982 302.75L232.162 299.95L234.612 304.822L235.564 307.272L231.252 311.178L232.792 314.356L233.282 317.954L232.862 322.77L231.98 325.85L235.564 327.754L241.962 326.83L241.724 321.944C243.831 320.688 246.059 319.646 248.374 318.836C251.09 318.066 250.824 318.108 254.17 317.072C257.516 316.036 256.494 316.316 258.104 315.784C259.714 315.252 261.282 314.594 261.282 314.594L261.394 309.526L264.054 300.314L265.692 301.392C267.316 302.484 269.752 298.522 269.752 298.522L270.9 291.522L267.596 289.8C265.672 289.407 263.72 289.173 261.758 289.1L257.152 286.678L253.288 279.86C252.026 278.489 250.948 276.959 250.082 275.31L251.86 271.95L254.044 267.75L256.326 268.954L258.426 270.074L260.652 271.236L264.292 268.884L266.322 263.2L269.122 260.708C270.942 259.056 272.216 262.108 272.216 262.108L275.212 258.342C278.222 254.576 275.73 256.326 274.19 254.394C273.84 253.862 273.361 253.426 272.799 253.128C272.236 252.829 271.607 252.677 270.97 252.686L265.496 246.148L261.142 247.8L260.526 249.858C259.924 251.93 260.526 249.858 254.212 247.38L252.14 241.346L253.386 239.946L253.68 234.346C253.68 234.346 250.054 232.568 247.296 231.084C244.538 229.6 243.908 225.806 243.908 225.806C243.864 223.722 244.29 221.655 245.154 219.758L243.754 215.796L238.588 205.702L239.456 201.152L242.466 199.262L243.656 193.2L238.252 188.076L240.422 183.96L241.962 181.034L243.754 177.618L245.154 170.702C245.154 170.702 244.804 169.414 244.482 167.986" stroke="#263238" stroke-linecap="round" stroke-linejoin="round"/>
<path d="M200.2 321.58C200.091 321.455 199.969 321.342 199.836 321.244V321.244L201.39 318.276L200.76 312.676L198.702 311.598C198.702 311.598 201.222 309.106 201.068 307.118C201.041 306.525 201.173 305.935 201.451 305.411C201.73 304.886 202.144 304.446 202.65 304.136L201.978 300.44L200.844 299.838C199.724 299.25 200.41 296.156 200.41 296.156L195.622 297.094L194.32 302.134L189.448 303.38C188.787 302.904 188.236 302.291 187.833 301.583C187.43 300.876 187.183 300.089 187.11 299.278C187.194 296.94 188.09 297.416 188.09 297.416H192.598L195.398 292.096L194.824 289.534L192.808 288.47" stroke="#263238" stroke-linecap="round" stroke-linejoin="round"/>
<path d="M192.682 288.47C192.906 288.596 191.464 282.1 191.464 282.1C191.464 282.1 189.672 277.354 187.712 276.5C185.752 275.646 181.328 278.656 181.328 278.656L176.386 279.356L175.266 285.292" stroke="#263238" stroke-linecap="round" stroke-linejoin="round"/>
<path d="M212.576 326.312L211.4 329.924C209.533 328.785 207.765 327.591 206.094 326.34L211.624 320.88L211.148 314.902C211.148 314.902 210.126 312.69 212.086 313.124C212.901 313.324 213.758 313.281 214.549 313C215.34 312.718 216.032 312.212 216.538 311.542C217.686 310.24 217.546 309.68 220.514 311.248C223.482 312.816 223.678 313.866 224.112 315.07C224.546 316.274 219.002 324.772 219.002 324.772L220.962 325.808C220.962 325.808 219.814 328.468 221.76 329.042L212.576 326.312Z" stroke="#263238" stroke-linecap="round" stroke-linejoin="round"/>
<path d="M275.506 282.03L278.95 280.952L281.96 283.99C281.96 283.99 287.91 284.76 285.586 287.35C283.262 289.94 278.824 289.912 278.824 289.912L277.2 292.964L274.4 289.562L273 286.762L274.05 284.746L275.506 282.03Z" stroke="#263238" stroke-linecap="round" stroke-linejoin="round"/>
<path d="M280.448 269.038C279.743 269.875 279.228 270.854 278.936 271.908L278.712 273.224L273.112 270.284L276.164 264.502L280.448 269.038Z" stroke="#263238" stroke-linecap="round" stroke-linejoin="round"/>
<path d="M584.262 599.27C576.758 605.514 518.952 645.19 436.464 638.792C432.026 601.244 415.1 446.992 434.35 422.8C434.35 422.8 481.054 400.526 524.076 409.878C567.098 419.23 583.842 428.19 586.908 435.946C589.232 441.812 585.914 551.04 584.262 599.27Z" fill="#263238"/>
<path d="M522.648 426.356C497.868 447.818 465.948 443.282 466.648 426.804C466.76 424.228 469.518 421.036 469.518 421.036L468.552 419.552L464.352 413.21C461.286 408.464 457.45 402.5 454.776 398.16C452.536 394.464 508.382 360.108 508.382 379.862C508.382 407.694 522.046 412.93 522.046 412.93C527.198 415.002 532 418.278 522.648 426.356Z" fill="white" stroke="#263238" stroke-linecap="round" stroke-linejoin="round"/>
<path d="M538.314 468.86C538.314 468.86 533.316 485.996 535.682 490.91" stroke="white" stroke-linecap="round" stroke-linejoin="round"/>
<path d="M532.476 419.104C532.476 435.638 483.154 451.836 468.706 435.246" stroke="white" stroke-linecap="round" stroke-linejoin="round"/>
<path d="M491.904 400.022C491.904 400.022 488.6 412.482 473.2 422.212C472.465 420.951 471.279 420.015 469.882 419.594C469.418 419.518 468.946 419.518 468.482 419.594L464.282 413.252C472.248 407.512 491.904 400.022 491.904 400.022Z" fill="#263238"/>
<path d="M498.82 384.706C498.82 384.706 498.652 396.998 496.02 399.504C476.49 418.236 457.394 419.72 454.244 414.778C433.034 381.514 438.046 372.778 435.89 367.08C432.068 357.084 427.378 340.76 429.45 330.876C434.07 308.798 475.65 291.676 497.546 313.88C508.046 324.506 511.364 347.564 509.152 366.772" fill="white"/>
<path d="M498.82 384.706C498.82 384.706 498.652 396.998 496.02 399.504C476.49 418.236 457.394 419.72 454.244 414.778C433.034 381.514 438.046 372.778 435.89 367.08C432.068 357.084 427.378 340.76 429.45 330.876C434.07 308.798 475.65 291.676 497.546 313.88C508.046 324.506 511.364 347.564 509.152 366.772" stroke="#263238" stroke-linecap="round" stroke-linejoin="round"/>
<path d="M438.564 356.804C438.564 356.804 432.726 354.186 431.466 357.308" stroke="#263238" stroke-linecap="round" stroke-linejoin="round"/>
<path d="M452.718 357C452.718 357 464.856 351.918 470.316 358.092" stroke="#263238" stroke-linecap="round" stroke-linejoin="round"/>
<path d="M466.2 365.61C466.396 367.43 465.514 369.012 464.212 369.166C462.91 369.32 461.706 367.934 461.51 366.114C461.314 364.294 462.196 362.698 463.498 362.558C464.8 362.418 465.948 363.79 466.2 365.61Z" fill="#263238"/>
<path d="M442.4 366.156C442.61 367.976 441.714 369.572 440.412 369.712C439.11 369.852 437.906 368.494 437.71 366.674C437.514 364.854 438.396 363.258 439.698 363.118C441 362.978 442.176 364.336 442.4 366.156Z" fill="#263238"/>
<path d="M442.988 361.368C444.682 364.098 443.758 368.76 441.518 375.158C439.278 381.556 441.252 383.866 449.848 384.51" fill="white"/>
<path d="M442.988 361.368C444.682 364.098 443.758 368.76 441.518 375.158C439.278 381.556 441.252 383.866 449.848 384.51" stroke="#263238" stroke-linecap="round" stroke-linejoin="round"/>
<path d="M449.848 395.584C449.848 395.584 461.048 394.562 466.172 391.748" stroke="#263238" stroke-linecap="round" stroke-linejoin="round"/>
<path d="M520.8 332.108C520.8 323.792 512.596 306.726 498.204 304.808C489.93 296.156 478.142 292.978 463.834 296.268C430.766 303.856 420.7 336.504 419.258 341.908C419.118 342.412 419.048 342.692 419.048 342.692L427.896 340.452L424.088 347.886L428.722 350.952L427.658 352.128L433.034 357.308L431.354 347.844C432.39 341.74 439.418 333.2 439.418 333.2C436.853 336.525 435.255 340.492 434.798 344.666C437.598 337.4 454.398 330.666 454.398 330.666C448.952 335.09 445.998 343.742 445.998 343.742C451.178 337.358 463.316 333.228 471.086 331.03C473.704 337.344 477.862 343.938 483.798 347.592C489.398 351.036 489.202 358.148 489.202 358.148C495.227 362.336 499.666 368.432 501.802 375.452L508.578 384.72C508.578 384.72 520.8 369.726 520.8 332.108Z" fill="#263238"/>
<path d="M492.282 360.528C490.014 355.67 498.246 342.51 504.084 344.134C507.36 345.058 511.644 351.036 512.484 357.308C513.324 363.58 508.886 375.508 504.154 378.098C501.144 379.778 498.666 375.2 498.666 375.2" fill="white"/>
<path d="M492.282 360.528C490.014 355.67 498.246 342.51 504.084 344.134C507.36 345.058 511.644 351.036 512.484 357.308C513.324 363.58 508.886 375.508 504.154 378.098C501.144 379.778 498.666 375.2 498.666 375.2" stroke="#263238" stroke-linecap="round" stroke-linejoin="round"/>
<path d="M135.114 598.15L293.3 561.162L623.252 599.27L538.3 657.37L135.114 598.15Z" fill="white"/>
<path d="M135.114 598.15L293.3 561.162L623.252 599.27" fill="white"/>
<path d="M135.114 598.15L293.3 561.162L623.252 599.27" stroke="#263238" stroke-linecap="round" stroke-linejoin="round"/>
<path d="M272.006 605.57L336.042 577.262L417.004 581.448L380.996 612.234L272.006 605.57Z" fill="white" stroke="#263238" stroke-linecap="round" stroke-linejoin="round"/>
<path d="M437.472 421.4C416.934 429.8 412.51 448.686 377.608 523.32C377.608 523.32 362.11 526.498 353.808 545.328C345.506 564.158 359.408 579.026 375.41 578.522C375.41 578.522 381.836 584.122 395.01 583.548C408.184 582.974 466.41 493.878 466.41 493.878L437.472 421.4Z" fill="#263238"/>
<path d="M383.726 527.702C392.91 535.878 398.188 547.876 395.388 561.176" stroke="white" stroke-linecap="round" stroke-linejoin="round"/>
<path d="M392.588 531.636C392.588 531.636 403.872 534.1 405.622 548.548" stroke="white" stroke-linecap="round" stroke-linejoin="round"/>
<path d="M425.6 489.356C420.269 476.202 418.426 461.894 420.252 447.818" stroke="white" stroke-linecap="round" stroke-linejoin="round"/>
<path d="M424.004 470.316C423.15 476.196 429.226 507.5 429.184 540.414" stroke="white" stroke-linecap="round" stroke-linejoin="round"/>
<path d="M577.528 427.588C603.218 440.496 606.27 480.214 582.036 527.702C564.914 561.218 541.282 610.708 526.33 614.026C511.378 617.344 496.79 608.034 496.79 608.034C496.79 608.034 484.19 607.446 480.382 598.486C469.966 574 496.44 543.06 506.8 550.466C506.8 550.466 540.064 478.128 546.126 473.564" fill="#263238"/>
<path d="M478.002 583.604C474.6 566.706 501.2 546.77 506.8 550.466C506.8 550.466 526.554 551.572 529.508 565.236" stroke="white" stroke-linecap="round" stroke-linejoin="round"/>
<path d="M550.368 587.202C561.932 566.804 582.036 527.702 582.036 527.702" stroke="white" stroke-linecap="round" stroke-linejoin="round"/>
<path d="M506.8 550.466C506.8 550.466 520.646 542.178 530.992 550.018" stroke="white" stroke-linecap="round" stroke-linejoin="round"/>
<path d="M511.532 540.4C511.532 540.4 519.176 523.6 526.932 508.2C534.688 492.8 552.44 469.994 559.818 468.888" stroke="white" stroke-linecap="round" stroke-linejoin="round"/>
<path d="M365.624 570.598C363.961 570.517 362.337 570.072 360.864 569.296C337.064 556.878 318.556 536.354 307.412 521.626C303.079 515.997 299.091 510.111 295.47 504L301.182 479.528C301.182 479.528 306.558 493.528 328.16 507.29C349.762 521.052 375.424 525.588 383.726 539.49C391.076 551.6 378.126 571.2 365.624 570.598Z" fill="white"/>
<path opacity="0.4" d="M365.624 570.598C365.358 568.828 364.889 567.094 364.224 565.432C359.226 552.916 328.986 528.038 328.986 528.038C321.79 527.814 313.88 524.818 307.44 521.626C303.098 515.998 299.1 510.112 295.47 504L301.182 479.528C301.182 479.528 306.558 493.528 328.16 507.29C349.762 521.052 375.424 525.588 383.726 539.49C391.076 551.6 378.126 571.2 365.624 570.598Z" fill="#3071E7"/>
<path d="M365.624 570.598C363.961 570.517 362.337 570.072 360.864 569.296C337.064 556.878 318.556 536.354 307.412 521.626C303.079 515.997 299.091 510.111 295.47 504L301.182 479.528C301.182 479.528 306.558 493.528 328.16 507.29C349.762 521.052 375.424 525.588 383.726 539.49C391.076 551.6 378.126 571.2 365.624 570.598Z" stroke="#263238" stroke-linecap="round" stroke-linejoin="round"/>
<path d="M311.724 502.516C311.724 502.516 308.77 515.564 300.986 512.638C296.786 511.056 288.694 498.512 287.168 492.184L311.724 502.516Z" fill="white" stroke="#263238" stroke-linecap="round" stroke-linejoin="round"/>
<path d="M277.41 422.17L283.766 418.894C283.766 418.894 301.728 419.048 312.872 428.106C322.994 436.338 328.132 449.232 328.132 449.232C328.132 449.232 367.458 427.518 407.624 439.978L424.004 531.272L348.698 536.2L301.7 491.554L277.41 422.17Z" fill="white" stroke="#263238" stroke-linecap="round" stroke-linejoin="round"/>
<path d="M429.184 534.926C429.184 534.926 420.35 534.66 408.534 535.052C390.67 535.612 365.988 537.628 354.704 544.194L354.172 544.012L343.84 540.4L343.63 540.092C341.726 537.292 326.368 515.242 304.43 506.268L273.406 419.58C273.406 419.58 305.606 420.98 323.204 450.072L332.038 453.264C332.038 453.264 384.608 437.696 414.036 443.296L429.184 534.926Z" fill="#3071E7"/>
<path opacity="0.3" d="M343.63 540.106C341.726 537.306 326.368 515.256 304.43 506.282L273.406 419.594C273.406 419.594 305.606 420.994 323.204 450.086L343.63 540.106Z" fill="black" fill-opacity="0.7"/>
<path opacity="0.3" d="M408.534 535.052C390.67 535.612 365.988 537.628 354.704 544.194L354.172 544.012L333.536 456.4C333.536 456.4 350.42 452.606 355.614 454.524C355.6 454.552 389.928 479.878 408.534 535.052Z" fill="black" fill-opacity="0.7"/>
<path d="M429.184 534.926C429.184 534.926 420.35 534.66 408.534 535.052C390.67 535.612 365.988 537.628 354.704 544.194L354.172 544.012L343.84 540.4L343.63 540.092C341.726 537.292 326.368 515.242 304.43 506.268L273.406 419.58C273.406 419.58 305.606 420.98 323.204 450.072L332.038 453.264C332.038 453.264 384.608 437.696 414.036 443.296L429.184 534.926Z" stroke="#263238" stroke-linecap="round" stroke-linejoin="round"/>
<path d="M332.066 453.278L352.324 537.32" stroke="#263238" stroke-linecap="round" stroke-linejoin="round"/>
<path d="M343.84 540.414L324.156 456.428" stroke="#263238" stroke-linecap="round" stroke-linejoin="round"/>
<path d="M293.832 504.07C289.338 502.824 280.28 475.818 284.424 464.184C284.424 464.184 289.352 455.63 291.424 455.042C294.56 454.132 307.216 454.398 306.6 456.526C305.2 461.454 295.484 461.37 295.484 461.37L292.334 467.138L292.46 470.316C292.46 470.316 297.038 466.984 298.718 467.082C299.586 467.082 304.066 469.322 307.622 471.198C310.66 472.808 312.522 473.69 311.822 475.146C309.568 479.99 299.978 476.546 299.978 476.546L296.366 481.992C296.366 481.992 299.852 482.594 301.378 482.762C302.904 482.93 315.574 491.372 315.196 492.422C313.698 496.538 301.686 492.086 301.686 492.086L299.558 493.864C299.558 493.864 308.406 496.146 309.358 496.482C310.758 497 316.148 501.144 316.064 501.62C315.42 505.26 307.986 502.586 307.986 502.586L301.476 502.32C300.484 503.195 299.292 503.81 298.004 504.112" fill="white"/>
<path d="M293.832 504.07C289.338 502.824 280.28 475.818 284.424 464.184C284.424 464.184 289.352 455.63 291.424 455.042C294.56 454.132 307.216 454.398 306.6 456.526C305.2 461.454 295.484 461.37 295.484 461.37L292.334 467.138L292.46 470.316C292.46 470.316 297.038 466.984 298.718 467.082C299.586 467.082 304.066 469.322 307.622 471.198C310.66 472.808 312.522 473.69 311.822 475.146C309.568 479.99 299.978 476.546 299.978 476.546L296.366 481.992C296.366 481.992 299.852 482.594 301.378 482.762C302.904 482.93 315.574 491.372 315.196 492.422C313.698 496.538 301.686 492.086 301.686 492.086L299.558 493.864C299.558 493.864 308.406 496.146 309.358 496.482C310.758 497 316.148 501.144 316.064 501.62C315.42 505.26 307.986 502.586 307.986 502.586L301.476 502.32C300.484 503.195 299.292 503.81 298.004 504.112" stroke="#263238" stroke-linecap="round" stroke-linejoin="round"/>
<path d="M292.404 470.316C292.404 470.316 288.204 473.844 287.126 474.866C286.048 475.888 286.314 479.136 286.314 479.136" stroke="#263238" stroke-linecap="round" stroke-linejoin="round"/>
<path d="M289.366 486.304C289.366 489.86 291.746 492.016 292.838 493.164C293.93 494.312 291.088 497.434 294.238 499.674" stroke="#263238" stroke-linecap="round" stroke-linejoin="round"/>
<path d="M496.734 599.018C487.844 601.44 478.184 585.816 466.396 568.764C458.612 557.564 449.904 545.622 439.894 537.964C439.096 537.362 438.284 536.774 437.472 536.214L443.324 506.814C455.476 513.184 463.008 523.39 475.622 533.876C495.922 550.774 513.912 561.148 518.896 568.624C523.88 576.1 511.966 594.86 496.734 599.018Z" fill="white"/>
<path opacity="0.4" d="M466.396 568.75C458.612 557.55 449.904 545.608 439.894 537.95C441.213 538.017 442.532 537.817 443.772 537.362C443.772 537.362 459.592 550.2 466.396 568.75Z" fill="#3071E7"/>
<path d="M496.734 599.018C487.844 601.44 478.184 585.816 466.396 568.764C458.612 557.564 449.904 545.622 439.894 537.964C439.096 537.362 438.284 536.774 437.472 536.214L443.324 506.814C455.476 513.184 463.008 523.39 475.622 533.876C495.922 550.774 513.912 561.148 518.896 568.624C523.88 576.1 511.966 594.86 496.734 599.018Z" stroke="#263238" stroke-linecap="round" stroke-linejoin="round"/>
<path d="M446.6 535.052C445.992 536.139 444.99 536.951 443.8 537.32C443.484 537.444 443.161 537.551 442.834 537.642H442.568C433.174 540.092 412.034 534.996 412.034 534.996C412.034 534.996 398.188 528.416 397.348 526.862C396.763 525.631 396.244 524.369 395.794 523.082L395.416 521.976C395.416 521.976 390.432 519.176 389.816 516.992C389.2 514.808 388.15 514.192 391.216 513.8C394.282 513.408 410.816 513.8 410.816 513.8L392.826 506.464C392.826 506.464 380.912 500.458 379.806 498.344C378.7 496.23 377.314 494.83 383.404 495.67C389.494 496.51 402.794 500.374 402.794 500.374L413.28 502.6L402.864 498.162C402.864 498.162 382.368 495.684 386.246 489.314H397.88C404.471 489.605 411.026 490.438 417.48 491.806C420.868 492.842 443.268 506.758 443.268 506.758" fill="white"/>
<path opacity="0.4" d="M442.54 537.698C433.146 540.148 412.006 535.052 412.006 535.052C412.006 535.052 398.16 528.472 397.32 526.918C396.735 525.687 396.216 524.425 395.766 523.138L412.762 525C412.167 526.071 411.855 527.275 411.855 528.5C411.855 529.725 412.167 530.929 412.762 532C414.652 535.402 436.184 538.846 442.54 537.698Z" fill="#3071E7"/>
<path d="M446.6 535.052C445.992 536.139 444.99 536.951 443.8 537.32C443.484 537.444 443.161 537.551 442.834 537.642H442.568C433.174 540.092 412.034 534.996 412.034 534.996C412.034 534.996 398.188 528.416 397.348 526.862C396.763 525.631 396.244 524.369 395.794 523.082L395.416 521.976C395.416 521.976 390.432 519.176 389.816 516.992C389.2 514.808 388.15 514.192 391.216 513.8C394.282 513.408 410.816 513.8 410.816 513.8L392.826 506.464C392.826 506.464 380.912 500.458 379.806 498.344C378.7 496.23 377.314 494.83 383.404 495.67C389.494 496.51 402.794 500.374 402.794 500.374L413.28 502.6L402.864 498.162C402.864 498.162 382.368 495.684 386.246 489.314H397.88C404.471 489.605 411.026 490.438 417.48 491.806C420.868 492.842 443.268 506.758 443.268 506.758" stroke="#263238" stroke-linecap="round" stroke-linejoin="round"/>
<path d="M395.388 522.032L415.842 525.042" stroke="#263238" stroke-linecap="round" stroke-linejoin="round"/>
<path d="M191.492 584.668L242.76 600.068L336.56 578.662C336.56 578.662 279.272 562.394 278.74 562.8C278.208 563.206 191.492 584.668 191.492 584.668Z" fill="#3071E7"/>
<path opacity="0.3" d="M191.492 584.668L242.76 600.068L336.56 578.662C336.56 578.662 279.272 562.394 278.74 562.8C278.208 563.206 191.492 584.668 191.492 584.668Z" fill="black" fill-opacity="0.7"/>
<path d="M191.492 584.668L242.76 600.068L336.56 578.662C336.56 578.662 279.272 562.394 278.74 562.8C278.208 563.206 191.492 584.668 191.492 584.668Z" stroke="#263238" stroke-linecap="round" stroke-linejoin="round"/>
<path d="M192.234 566.608C188.636 566.86 187.74 579.824 191.492 584.668L274.316 567.476L280.952 551.768L192.234 566.608Z" fill="#3071E7"/>
<path opacity="0.3" d="M192.234 566.608C188.636 566.86 187.74 579.824 191.492 584.668L274.316 567.476L280.952 551.768L192.234 566.608Z" fill="black" fill-opacity="0.7"/>
<path d="M192.234 566.608C188.636 566.86 187.74 579.824 191.492 584.668L274.316 567.476L280.952 551.768L192.234 566.608Z" stroke="#263238" stroke-linecap="round" stroke-linejoin="round"/>
<path d="M332.542 566.426C332.542 566.426 331.31 573.244 332.108 577.444L242.662 597.688L195.51 583.8C195.51 583.8 190.61 575.134 194.88 568.4L281.036 553.77L332.542 566.426Z" fill="white" stroke="#263238" stroke-linecap="round" stroke-linejoin="round"/>
<path d="M192.234 566.608L280.952 551.768L336.042 565.726L243.39 584.192L192.234 566.608Z" fill="#3071E7" stroke="#263238" stroke-linecap="round" stroke-linejoin="round"/>
<path d="M195.384 574.896L242.298 588.868L319.088 573.412" stroke="#263238" stroke-linecap="round" stroke-linejoin="round"/>
<path d="M331.856 574.84L249.284 592.452" stroke="#263238" stroke-linecap="round" stroke-linejoin="round"/>
<path d="M196.49 580.398C197.204 580.468 231.854 591.136 231.854 591.136" stroke="#263238" stroke-linecap="round" stroke-linejoin="round"/>
<path d="M325.108 571.606L331.674 570.542" stroke="#263238" stroke-linecap="round" stroke-linejoin="round"/>
<path d="M240.772 593.726L237.286 592.942" stroke="#263238" stroke-linecap="round" stroke-linejoin="round"/>
<path d="M194.88 568.4C196.716 570.515 197.778 573.191 197.893 575.99C198.007 578.788 197.167 581.542 195.51 583.8C193.976 581.549 193.104 578.912 192.993 576.19C192.881 573.468 193.535 570.769 194.88 568.4Z" fill="#263238"/>
<path opacity="0.3" d="M194.88 568.4C196.716 570.515 197.778 573.191 197.893 575.99C198.007 578.788 197.167 581.542 195.51 583.8C193.976 581.549 193.104 578.912 192.993 576.19C192.881 573.468 193.535 570.769 194.88 568.4Z" fill="white" fill-opacity="0.7"/>
<path d="M194.88 568.4C196.716 570.515 197.778 573.191 197.893 575.99C198.007 578.788 197.167 581.542 195.51 583.8C193.976 581.549 193.104 578.912 192.993 576.19C192.881 573.468 193.535 570.769 194.88 568.4Z" stroke="#263238" stroke-linecap="round" stroke-linejoin="round"/>
<path d="M386.498 588.868L476.028 592.536L467.306 623.35L357.168 619.15L386.498 588.868Z" fill="white"/>
<path opacity="0.4" d="M386.498 588.868L476.028 592.536L467.306 623.35L357.168 619.15L386.498 588.868Z" fill="#3071E7"/>
<path d="M386.498 588.868L476.028 592.536L467.306 623.35L357.168 619.15L386.498 588.868Z" stroke="#263238" stroke-linecap="round" stroke-linejoin="round"/>
</svg>
