<svg width="58" height="58" viewBox="0 0 58 58" fill="none" xmlns="http://www.w3.org/2000/svg">
<path d="M29 0C12.9835 0 0 12.9835 0 29C0 45.0165 12.9835 58 29 58C45.0165 58 58 45.0165 58 29C58 12.9835 45.0165 0 29 0ZM21.901 41.0199H16.0285V22.1216H21.901V41.0199ZM18.9285 19.8016C17.0737 19.8016 15.8745 18.4875 15.8745 16.8623C15.8745 15.2039 17.11 13.9291 19.0041 13.9291C20.8981 13.9291 22.0581 15.2039 22.0944 16.8623C22.0944 18.4875 20.8981 19.8016 18.9285 19.8016ZM43.349 41.0199H37.4765V30.5467C37.4765 28.1089 36.6246 26.4534 34.5009 26.4534C32.8787 26.4534 31.9151 27.5742 31.4892 28.6526C31.3321 29.0363 31.2928 29.58 31.2928 30.1207V41.0169H25.4173V28.1481C25.4173 25.7889 25.3418 23.8162 25.2632 22.1185H30.3654L30.6343 24.7436H30.7521C31.5254 23.5111 33.4195 21.6926 36.5883 21.6926C40.452 21.6926 43.349 24.2815 43.349 29.8458V41.0199Z" fill="#3071E7"/>
</svg>
