<svg width="369" height="220" viewBox="0 0 369 220" fill="none" xmlns="http://www.w3.org/2000/svg">
<path d="M73.3405 3.83566C67.4518 6.01268 53.5332 11.0924 42.2912 15.1354C31.1563 19.1784 17.0236 24.2581 11.0278 26.3315C4.92505 28.4048 0 30.3745 0 30.6855C0 30.9965 5.88865 33.3809 13.1692 36.0762L26.2313 40.8449L26.5525 45.6136C26.7666 48.5163 26.3383 51.2116 25.3747 52.5593C24.0899 54.218 24.0899 55.3583 24.9465 57.639C25.803 59.816 25.6959 65.7251 24.3041 80.5495C23.1263 94.8556 22.9122 100.972 23.7687 101.905C25.1606 103.667 29.015 103.667 31.2634 101.905C32.8694 100.765 32.8694 99.3133 31.3705 85.6292C30.5139 77.3358 30.0857 66.5544 30.2998 61.4747C30.621 56.4987 30.4069 52.1446 29.8715 51.8336C28.9079 51.3153 28.4797 42.0889 29.3362 42.0889C29.9786 42.0889 71.9486 57.1207 78.5867 59.7124L83.833 61.7857L126.017 46.5466C149.143 38.1496 168.094 30.9965 168.094 30.6855C168.094 30.3745 163.919 28.7158 158.672 26.8498C153.533 25.0875 140.685 20.4224 130.086 16.5867C119.486 12.7511 104.818 7.46402 97.4304 4.87234L84.0471 -2.28882e-05L73.3405 3.83566Z" fill="#3071E7"/>
<path d="M40.6852 59.7124C40.6852 70.3901 41.97 74.2258 47.1092 79.2019C60.4925 92.1603 91.97 95.1666 111.884 85.4219C117.773 82.4155 122.163 78.7872 124.946 74.3295C127.088 71.1158 127.409 69.1461 127.409 60.4381C127.409 50.797 127.302 50.2787 125.268 50.9007C124.197 51.2117 114.454 54.7364 103.64 58.6757L84.0471 65.8288L62.848 58.1574C51.1777 53.907 41.4347 50.3823 41.1135 50.3823C40.8994 50.3823 40.6852 54.6327 40.6852 59.7124Z" fill="#3071E7"/>
<path d="M305.139 51.5226C297.43 54.6327 291.221 62.5114 291.221 69.2498C291.221 75.2625 296.146 83.4522 304.176 91.0199C310.385 96.8253 312.313 98.0693 315.203 98.0693H318.737L315.31 94.5446C310.6 89.6722 307.923 83.8669 307.923 78.2688C307.923 67.7984 317.88 60.438 325.268 65.4141C327.088 66.6581 328.051 66.7617 329.872 65.9324L332.013 64.7921L329.443 61.4747C322.912 53.1813 311.991 48.7236 305.139 51.5226Z" fill="#161E35"/>
<path d="M43.8972 105.844V113.619H49.2505H54.6039V128.444V143.372L58.03 148.348C63.8116 156.745 78.2655 166.282 88.0086 168.045C93.0407 168.978 97.5375 167.941 102.248 164.935L105.996 162.447V168.563C105.996 176.649 107.066 179.033 113.704 185.875C120.45 192.718 128.801 198.419 139.293 203.292C153.105 209.719 162.848 210.445 168.63 205.572L171.413 203.292L164.026 199.041C156.638 194.791 156.531 194.687 154.497 196.657C153.319 197.797 150.642 198.938 148.501 199.352C143.255 200.182 132.334 195.102 126.981 189.297L123.126 185.15V149.074V112.997L115.31 105.533L107.602 98.0693H75.6959H43.8972V105.844ZM105.996 127.925V142.232L100.535 147.726C90.7923 157.263 80.5139 160.581 74.5182 156.019L71.7345 153.946V133.731V113.619H88.8651H105.996V127.925Z" fill="#161E35"/>
<path d="M124.411 105.533L131.478 113.101L165.525 113.619L199.572 114.138L202.034 118.284C204.711 122.846 205.032 124.712 203.426 127.096C202.677 128.34 198.715 128.755 183.405 129.169C166.595 129.688 163.812 129.999 159.957 131.968C150.428 136.841 146.039 144.927 147.002 155.605C148.715 173.435 161.884 190.022 179.764 196.657C184.261 198.316 188.223 198.938 195.396 199.041C203.961 199.145 205.782 198.834 211.135 196.242C214.561 194.584 218.951 191.37 221.092 188.985C228.48 180.588 228.266 172.088 220.236 163.691C208.244 151.147 192.612 151.354 184.475 164.209C181.692 168.667 181.37 172.606 183.512 176.753C185.118 179.759 191.435 185.564 194.004 186.394C196.895 187.43 193.576 188.674 186.831 189.089C181.37 189.4 179.015 189.089 175.161 187.223C166.06 182.973 159.529 173.435 159.529 164.209C159.529 158.715 164.24 150.629 169.486 147.208C173.876 144.305 174.518 144.201 190.15 143.683C203.212 143.268 206.745 142.854 209.101 141.299C213.383 138.603 214.454 135.078 213.062 128.547C211.67 122.224 208.887 117.973 198.608 106.57L191.114 98.1729H154.283L117.452 98.0692L124.411 105.533ZM214.561 166.801C216.381 169.496 211.884 176.753 205.46 181.521C200.321 185.253 200.107 185.357 198.073 183.595C195.289 181.107 195.396 176.96 198.394 172.606C203.319 165.453 211.777 162.447 214.561 166.801Z" fill="#161E35"/>
<path d="M207.281 105.844L214.454 113.619H230.3H246.146L246.467 145.134L246.788 176.649L250 181.107C254.925 187.845 267.024 197.175 277.409 202.255C292.612 209.615 302.355 210.652 308.886 205.78L311.67 203.603L304.604 199.456L297.43 195.309L293.148 197.59C287.58 200.596 282.227 199.974 274.197 195.206C262.955 188.467 263.383 190.333 263.383 148.866V112.79L254.925 105.43L246.467 98.0693H223.233H200.107L207.281 105.844Z" fill="#161E35"/>
<path d="M264.454 105.844L272.377 113.619H300.535H328.587L330.3 116.626C332.227 120.254 331.478 122.742 328.266 123.468C327.088 123.675 319.914 124.09 312.527 124.193C299.893 124.504 298.822 124.712 294.54 127.407C289.293 130.724 285.867 135.701 285.867 139.847C285.867 150.836 306.959 167.112 318.415 165.038C320.45 164.624 325.054 162.447 328.694 160.166C336.296 155.501 339.293 155.294 341.328 159.544C342.505 161.928 342.505 163.069 341.542 165.557C339.079 171.155 327.837 178.204 319.058 179.552C315.311 180.174 314.24 179.863 311.777 177.686C305.139 171.673 296.146 169.703 290.792 173.021C288.544 174.472 288.009 175.612 288.009 178.93C288.009 186.498 297.109 193.236 309.957 194.998C314.561 195.724 316.274 196.761 322.163 202.048C333.94 212.622 347.323 219.36 356.638 219.36C359.85 219.36 368.308 216.457 368.308 215.421C368.308 215.006 365.632 212.103 362.313 208.89L356.21 202.981L352.891 204.95C351.071 205.987 347.645 206.92 345.182 206.92C339.936 206.92 329.443 202.151 325.054 197.694L322.056 194.687L327.516 193.547C343.041 190.333 354.818 179.137 352.891 169.289C351.392 161.306 343.255 151.147 335.653 147.726C328.266 144.409 324.197 145.238 314.454 152.08C311.884 153.946 308.779 155.086 306.745 155.086C300.214 155.086 297.645 148.659 302.141 143.165C305.889 138.5 310.064 137.463 324.946 137.463H338.544L341.756 134.353C344.326 131.761 344.861 130.621 344.218 128.34C342.72 122.327 339.615 118.077 329.979 108.229L319.914 98.0693H288.223H256.531L264.454 105.844Z" fill="#161E35"/>
<path d="M337.259 105.844L345.182 113.619H353.533H361.884V105.844V98.0692H345.61H329.336L337.259 105.844Z" fill="#161E35"/>
</svg>
