<svg width="61" height="61" viewBox="0 0 61 61" fill="none" xmlns="http://www.w3.org/2000/svg">
<path d="M30.5 0.3125C13.8295 0.3125 0.3125 13.8295 0.3125 30.5C0.3125 47.1705 13.8295 60.6875 30.5 60.6875C47.1705 60.6875 60.6875 47.1705 60.6875 30.5C60.6875 13.8295 47.1705 0.3125 30.5 0.3125ZM45.0075 23.0677C45.0277 23.3844 45.0277 23.7146 45.0277 24.038C45.0277 33.9298 37.4943 45.3242 23.728 45.3242C19.4829 45.3242 15.5478 44.0911 12.2325 41.9686C12.839 42.0359 13.4185 42.0629 14.0384 42.0629C17.5423 42.0629 20.7632 40.877 23.3305 38.8689C20.0422 38.8016 17.2795 36.6453 16.3361 33.6805C17.4884 33.8489 18.5261 33.8489 19.712 33.5457C18.0189 33.2017 16.497 32.2822 15.405 30.9433C14.313 29.6044 13.7182 27.9287 13.7217 26.201V26.1066C14.7122 26.6659 15.8779 27.0096 17.0976 27.0567C16.0723 26.3734 15.2314 25.4477 14.6496 24.3616C14.0678 23.2755 13.7629 22.0627 13.7621 20.8306C13.7621 19.4357 14.126 18.1622 14.7796 17.0571C16.6589 19.3706 19.004 21.2628 21.6625 22.6106C24.321 23.9584 27.2333 24.7317 30.2103 24.8803C29.1523 19.7929 32.9527 15.6758 37.5213 15.6758C39.6775 15.6758 41.6182 16.5787 42.986 18.0342C44.6773 17.7175 46.2945 17.0841 47.7365 16.2351C47.1772 17.9668 46.0048 19.429 44.4482 20.3521C45.9576 20.1904 47.4131 19.7727 48.7607 19.1864C47.7433 20.6823 46.4697 22.0098 45.0075 23.0677Z" fill="#3071E7"/>
</svg>
